<?xml version="1.0" standalone="no"?>
<!DOCTYPE svg PUBLIC "-//W3C//DTD SVG 20010904//EN" "http://www.w3.org/TR/2001/REC-SVG-20010904/DTD/svg10.dtd">
<svg xmlns="http://www.w3.org/2000/svg" version="1.0" width="256.000000pt" height="256.000000pt" viewBox="0 0 256.000000 256.000000" preserveAspectRatio="xMidYMid meet">
<metadata>
Created by potrace 1.16, written by Peter Selinger 2001-2019
<meta name="Producer" content="Online-Convert"/></metadata>
<g transform="translate(0.000000,256.000000) scale(0.100000,-0.100000)" fill="#000000" stroke="none">
<path d="M485 2501 c-202 -58 -377 -236 -429 -437 -20 -79 -21 -241 -1 -317 16 -60 65 -165 97 -207 75 -98 188 -185 278 -215 l49 -16 3 -494 3 -494 23 -23 23 -23 497 -3 498 -3 75 -72 c113 -112 222 -157 379 -157 47 0 112 7 145 15 180 47 327 193 380 379 24 82 17 258 -13 335 -43 109 -124 208 -222 271 l-50 32 -2 564 -3 565 -146 144 -145 145 -527 0 c-435 0 -536 3 -584 15 -79 21 -250 19 -328 -4z m294 -76 c144 -34 294 -151 354 -276 85 -174 74 -383 -28 -536 -98 -147 -243 -231 -415 -241 -163 -8 -296 42 -410 156 -213 213 -213 541 -1 753 134 134 318 186 500 144z m1089 -135 c4 -152 1 -150 149 -150 l113 0 0 -521 0 -520 -47 8 c-134 23 -282 -6 -391 -77 l-63 -40 -222 0 c-122 0 -232 -3 -244 -6 -27 -7 -39 -40 -23 -59 10 -12 50 -15 211 -15 110 0 199 -3 199 -6 0 -3 -9 -19 -20 -34 -11 -16 -27 -45 -35 -64 l-15 -36 -166 -2 c-146 -3 -168 -5 -178 -21 -8 -12 -8 -22 0 -35 10 -15 31 -17 163 -20 l152 -3 -3 -32 -3 -32 -146 -3 c-156 -3 -178 -9 -164 -50 8 -28 32 -32 183 -32 l132 0 0 -29 c0 -16 9 -57 19 -90 l19 -61 -459 0 -459 0 0 465 0 465 90 0 c79 0 91 -2 100 -20 10 -18 21 -20 130 -20 139 0 140 0 140 101 0 60 1 62 44 100 24 21 65 70 92 109 l48 70 352 0 c298 0 355 2 367 15 12 12 14 40 3 57 0 1 -157 5 -347 8 l-345 5 8 33 9 32 212 0 c214 0 237 4 237 36 0 7 -7 20 -16 28 -13 14 -47 16 -220 16 l-204 0 0 65 0 65 323 0 c177 0 327 4 333 8 17 11 22 35 12 55 -8 16 -35 17 -347 17 l-339 0 -11 31 c-6 18 -11 34 -11 35 0 2 103 4 228 4 229 0 252 3 252 36 0 7 -7 20 -16 28 -13 14 -51 16 -263 16 l-247 0 -19 32 c-10 18 -47 60 -83 95 l-64 63 424 -2 423 -3 3 -115z m193 -1260 c136 -25 275 -131 333 -254 130 -274 -41 -598 -341 -648 -245 -41 -481 131 -523 382 -39 230 121 465 353 515 77 17 110 18 178 5z"/>
<path d="M725 2365 c-5 -2 -63 -18 -127 -36 -81 -21 -119 -36 -123 -48 -7 -22 50 -230 68 -249 13 -13 30 -10 143 19 70 19 134 39 143 45 14 11 13 23 -13 120 -35 139 -50 164 -91 149z m22 -211 c-1 -1 -35 -11 -75 -22 -53 -15 -74 -18 -77 -9 -2 7 -8 27 -14 46 -6 19 -11 42 -11 52 0 22 28 25 36 4 8 -20 42 -29 59 -15 8 7 15 23 15 35 0 14 7 25 18 27 13 3 21 -9 34 -56 10 -33 16 -61 15 -62z"/>
<path d="M252 2178 c-16 -16 -15 -43 1 -56 7 -6 39 -12 72 -14 l59 -3 59 -232 60 -231 -22 -28 c-47 -60 -10 -156 66 -170 49 -9 100 17 119 61 11 28 22 36 56 45 24 7 92 25 153 41 78 22 120 28 147 24 69 -12 92 31 36 65 -45 27 -65 26 -238 -21 l-152 -41 -44 24 c-34 18 -47 31 -54 58 -5 19 -34 131 -65 249 -30 118 -60 220 -66 228 -15 17 -170 18 -187 1z"/>
<path d="M716 2040 c-76 -21 -145 -45 -153 -53 -13 -13 -10 -32 22 -153 20 -77 43 -145 50 -153 11 -11 37 -7 172 28 87 23 164 49 172 56 12 12 9 33 -23 152 -21 76 -43 144 -48 151 -15 18 -38 14 -192 -28z m160 -139 c16 -59 19 -83 11 -86 -7 -2 -54 -15 -104 -28 l-93 -25 -9 37 c-40 150 -40 136 0 146 21 5 27 2 31 -13 3 -11 15 -25 27 -31 28 -16 61 16 54 52 -4 21 -1 26 18 30 39 7 41 4 65 -82z"/>
<path d="M1140 1475 c-6 -8 -9 -23 -5 -35 6 -20 13 -20 285 -20 272 0 279 0 285 20 15 48 1 50 -285 50 -222 0 -270 -2 -280 -15z"/>
<path d="M1146 1334 c-9 -8 -16 -21 -16 -28 0 -34 19 -36 412 -36 366 0 388 1 397 18 7 14 6 25 -5 40 -15 22 -17 22 -394 22 -331 0 -381 -2 -394 -16z"/>
<path d="M760 1131 c-5 -11 -10 -62 -10 -113 0 -135 3 -138 140 -138 137 0 140 3 140 138 0 135 3 132 -140 132 -108 0 -120 -2 -130 -19z"/>
<path d="M1142 1118 c-16 -16 -15 -33 4 -52 23 -24 525 -24 548 0 19 19 20 36 4 52 -17 17 -539 17 -556 0z"/>
<path d="M760 771 c-5 -11 -10 -65 -10 -120 0 -132 -1 -131 140 -131 137 0 140 3 140 138 0 135 3 132 -140 132 -108 0 -120 -2 -130 -19z"/>
<path d="M1910 999 c-174 -28 -325 -183 -348 -357 -32 -236 121 -443 357 -484 176 -30 365 70 446 236 150 307 -115 660 -455 605z m192 -95 c101 -35 196 -145 218 -251 68 -327 -321 -554 -565 -331 -80 72 -107 131 -113 238 -5 106 19 176 83 247 97 109 240 146 377 97z"/>
<path d="M1955 834 c-13 -13 -15 -38 -13 -147 l3 -132 101 -58 c102 -59 127 -63 139 -26 9 27 2 34 -86 85 l-79 46 0 112 c0 111 -7 136 -36 136 -7 0 -20 -7 -29 -16z"/>
</g>
</svg>
